<svg viewBox="0 0 695 304" xmlns="http://www.w3.org/2000/svg"><path d="M521.75 195.54l-16.37-69.63h-.62l-16.68 69.63h33.67zM480.05 73.7h49.72l55.28 192.88h-46.32l-9.88-39.87h-47.56l-10.19 39.86h-46.33L480.05 73.7zM695 254.78c-14.21 10.11-29 14.32-49.11 14.32-50.34 0-85.54-37.62-85.54-96.58 0-60.64 33.66-100.23 85.54-100.23A111.55 111.55 0 0 1 693.46 83v36.78c-15.44-8.14-25.63-11.23-36.14-11.23-27.49 0-48.18 19.37-48.18 61.48 0 40.71 16.06 62.89 45.71 62.89 12.35 0 26.56-6.18 40.15-15.44v37.3zM455.55 52c.5.19.76 12.87 1.26 17.63.63 6.12-.37 11.93-.11 11.88-14.71-7.58-29.34-17-47.79-18-12.73-1.67-29.49-1.22-41.58 3.86l-6.5 3.09a44.36 44.36 0 0 1 2.93-10.68c2.11-5.36 4.44-17.58 4.44-17.58l67 14.37L455.55 52zm42.77-17.63l-.12.07s18.16 6.95 28.36 13.84c9.14 6.18 21.22 18.58 21.26 18.65a24.16 24.16 0 0 1 7 1c8.28 3.92 10.18 14.13 15.08 22-6.39 1.83-8.5 7.13-15.48 7.75l-1.76-1.29a7.52 7.52 0 0 1-4.35 2.56c-2.18-9.32-10.37-20.3-4.93-29.13-1.28-2.61-11.06-11.6-19.38-17.47-10.59-7.46-24.8-12.89-29.7-14.86l4.02-3.12zm-162.18 178.3c20.07 14.88 31.81 20.21 44.47 20.21 11.43 0 19.46-6.74 19.46-16 0-28.07-65.78-49.13-65.78-95.74 0-27.51 26.25-48.85 60.53-48.85 15.13 0 29.65 3.65 46 11.79V120c-21-10.67-30.27-13.76-40.76-13.76-11.43 0-19.46 5.34-19.46 13.2 0 22.74 68.25 50.54 68.25 96 0 30.6-26.25 53.63-61.15 53.63-16.37 0-31.81-4.49-51.58-15.17l.02-41.23zM195 74.82h48.49l32.42 98.83h.62l30.58-98.83h48.48L287.96 269.1h-22.24L195 74.82zm239.56-22.38L306.17 23.79 399.34 0l138.53 26.9-103.31 25.54zM97.805 269.07v-43.312c0-5.39-.739-9.434-2.215-12.13-1.477-2.694-3.809-4.042-6.996-4.042-4.219 0-7.313 1.805-9.281 5.414-1.97 3.61-2.954 9.258-2.954 16.945v37.125H48.797v-43.312c0-5.39-.703-9.434-2.11-12.13-1.406-2.694-3.68-4.042-6.82-4.042-4.312 0-7.453 1.922-9.422 5.766-1.968 3.843-2.953 10.125-2.953 18.843v34.875H0v-79.664h20.742l3.445 9.844h1.618c2.11-3.656 5.168-6.445 9.175-8.367C38.988 188.96 43.547 188 48.656 188c11.485 0 19.547 3.492 24.188 10.477h2.18c2.25-3.282 5.378-5.848 9.386-7.7 4.008-1.851 8.426-2.777 13.254-2.777 9.422 0 16.383 2.414 20.883 7.242 4.5 4.828 6.75 12.164 6.75 22.008v51.82H97.805zm33.362-79.664h28.969l13.5 45.703c.656 2.391 1.101 5.274 1.336 8.649h.562c.375-3.235.938-6.07 1.688-8.508l13.851-45.844h28.055l-31.5 84.727c-4.031 10.781-8.988 18.398-14.871 22.851-5.883 4.454-13.559 6.68-23.027 6.68-3.657 0-7.407-.398-11.25-1.195v-21.586c2.484.562 5.32.844 8.507.844 2.438 0 4.57-.47 6.399-1.407 1.828-.937 3.422-2.261 4.781-3.972 1.36-1.711 2.813-4.512 4.36-8.403l-31.36-78.539z"/></svg>