<svg xmlns="http://www.w3.org/2000/svg" xmlns:xlink="http://www.w3.org/1999/xlink" width="0" height="0" style="position:absolute">
	
		<symbol id="icon-alert" viewBox="0 0 16 16">
			<title>alert</title><path d="M8.865 1.52c-.18-.31-.51-.5-.87-.5s-.69.19-.87.5L.275 13.5c-.18.31-.18.69 0 1 .19.31.52.5.87.5h13.7c.36 0 .69-.19.86-.5.17-.31.18-.69.01-1L8.865 1.52zM8.995 13h-2v-2h2v2zm0-3h-2V6h2v4z" fill-rule="evenodd"></path>
		</symbol>
	
		<symbol id="icon-arrow-down" viewBox="0 0 10 16">
			<title>arrow-down</title><path d="M7 7V3H3v4H0l5 6 5-6" fill-rule="evenodd"></path>
		</symbol>
	
		<symbol id="icon-arrow-left" viewBox="0 0 10 16">
			<title>arrow-left</title><path d="M6 3L0 8l6 5v-3h4V6H6" fill-rule="evenodd"></path>
		</symbol>
	
		<symbol id="icon-arrow-right" viewBox="0 0 10 16">
			<title>arrow-right</title><path fill-rule="evenodd" d="M10 8L4 3v3H0v4h4v3z"></path>
		</symbol>
	
		<symbol id="icon-check" viewBox="0 0 12 16">
			<title>check</title><path fill-rule="evenodd" d="M12 5l-8 8-4-4 1.5-1.5L4 10l6.5-6.5z"></path>
		</symbol>
	
		<symbol id="icon-chevron-down" viewBox="0 0 10 16">
			<title>chevron-down</title><path fill-rule="evenodd" d="M5 11L0 6l1.5-1.5L5 8.25 8.5 4.5 10 6z"></path>
		</symbol>
	
		<symbol id="icon-chevron-left" viewBox="0 0 8 16">
			<title>chevron-left</title><path fill-rule="evenodd" d="M5.5 3L7 4.5 3.25 8 7 11.5 5.5 13l-5-5z"></path>
		</symbol>
	
		<symbol id="icon-chevron-right" viewBox="0 0 8 16">
			<title>chevron-right</title><path fill-rule="evenodd" d="M7.5 8l-5 5L1 11.5 4.75 8 1 4.5 2.5 3z"></path>
		</symbol>
	
		<symbol id="icon-chevron-up" viewBox="0 0 10 16">
			<title>chevron-up</title><path fill-rule="evenodd" d="M10 10l-1.5 1.5L5 7.75 1.5 11.5 0 10l5-5z"></path>
		</symbol>
	
		<symbol id="icon-circle-slash" viewBox="0 0 14 16">
			<title>circle-slash</title><path d="M7 1C3.14 1 0 4.14 0 8s3.14 7 7 7 7-3.14 7-7-3.14-7-7-7zm0 1.3c1.3 0 2.5.44 3.47 1.17l-8 8A5.755 5.755 0 0 1 1.3 8c0-3.14 2.56-5.7 5.7-5.7zm0 11.41c-1.3 0-2.5-.44-3.47-1.17l8-8c.73.97 1.17 2.17 1.17 3.47 0 3.14-2.56 5.7-5.7 5.7z" fill-rule="evenodd"></path>
		</symbol>
	
		<symbol id="icon-cloud-download" viewBox="0 0 16 16">
			<title>cloud-download</title><path d="M9 12h2l-3 3-3-3h2V7h2v5zm3-8c0-.44-.91-3-4.5-3C5.08 1 3 2.92 3 5 1.02 5 0 6.52 0 8c0 1.53 1 3 3 3h3V9.7H3C1.38 9.7 1.3 8.28 1.3 8c0-.17.05-1.7 1.7-1.7h1.3V5c0-1.39 1.56-2.7 3.2-2.7 2.55 0 3.13 1.55 3.2 1.8v1.2H12c.81 0 2.7.22 2.7 2.2 0 2.09-2.25 2.2-2.7 2.2h-2V11h2c2.08 0 4-1.16 4-3.5C16 5.06 14.08 4 12 4z" fill-rule="evenodd"></path>
		</symbol>
	
		<symbol id="icon-cloud-upload" viewBox="0 0 16 16">
			<title>cloud-upload</title><path d="M7 9H5l3-3 3 3H9v5H7V9zm5-4c0-.44-.91-3-4.5-3C5.08 2 3 3.92 3 6 1.02 6 0 7.52 0 9c0 1.53 1 3 3 3h3v-1.3H3c-1.62 0-1.7-1.42-1.7-1.7 0-.17.05-1.7 1.7-1.7h1.3V6c0-1.39 1.56-2.7 3.2-2.7 2.55 0 3.13 1.55 3.2 1.8v1.2H12c.81 0 2.7.22 2.7 2.2 0 2.09-2.25 2.2-2.7 2.2h-2V12h2c2.08 0 4-1.16 4-3.5C16 6.06 14.08 5 12 5z" fill-rule="evenodd"></path>
		</symbol>
	
		<symbol id="icon-eye" viewBox="0 0 16 16">
			<title>eye</title><path d="M8.06 2C3 2 0 8 0 8s3 6 8.06 6C13 14 16 8 16 8s-3-6-7.94-6zM8 12c-2.2 0-4-1.78-4-4 0-2.2 1.8-4 4-4 2.22 0 4 1.8 4 4 0 2.22-1.78 4-4 4zm2-4c0 1.11-.89 2-2 2-1.11 0-2-.89-2-2 0-1.11.89-2 2-2 1.11 0 2 .89 2 2z" fill-rule="evenodd"></path>
		</symbol>
	
		<symbol id="icon-file-pdf" viewBox="0 0 12 16">
			<title>file-pdf</title><path d="M8.5 1H1a1 1 0 0 0-1 1v12a1 1 0 0 0 1 1h10a1 1 0 0 0 1-1V4.5L8.5 1zM1 2h4a.68.68 0 0 0-.31.2 1.08 1.08 0 0 0-.23.47 4.22 4.22 0 0 0-.09 1.47c.06.609.173 1.211.34 1.8A21.78 21.78 0 0 1 3.6 8.6c-.5 1-.8 1.66-.91 1.84a7.16 7.16 0 0 0-.69.3 4.19 4.19 0 0 0-1 .64V2zm4.42 4.8a5.65 5.65 0 0 0 1.17 2.09c.275.237.595.417.94.53-.64.09-1.23.2-1.81.33a12.22 12.22 0 0 0-1.81.59c-.587.243.22-.44.61-1.25.365-.74.67-1.51.91-2.3l-.01.01zM11 14H1.5a.74.74 0 0 1-.17 0 2.12 2.12 0 0 0 .73-.44 10.14 10.14 0 0 0 1.78-2.38c.31-.13.58-.23.81-.31l.42-.14c.45-.13.94-.23 1.44-.33s1-.16 1.48-.2a8.65 8.65 0 0 0 1.39.53c.403.11.814.188 1.23.23h.38V14H11zm0-4.86a3.74 3.74 0 0 0-.64-.28 4.22 4.22 0 0 0-.75-.11c-.411.003-.822.03-1.23.08a3 3 0 0 1-1-.64 6.07 6.07 0 0 1-1.29-2.33c.111-.661.178-1.33.2-2 .02-.25.02-.5 0-.75a1.05 1.05 0 0 0-.2-.88.82.82 0 0 0-.61-.23H8l3 3v4.14z" fill="#010101" fill-rule="evenodd"></path>
		</symbol>
	
		<symbol id="icon-file-text" viewBox="0 0 12 16">
			<path d="M6 5H2V4h4v1zM2 8h7V7H2v1zm0 2h7V9H2v1zm0 2h7v-1H2v1zm10-7.5V14c0 .55-.45 1-1 1H1c-.55 0-1-.45-1-1V2c0-.55.45-1 1-1h7.5L12 4.5zM11 5L8 2H1v12h10V5z"></path>
		</symbol>
	
		<symbol id="icon-gear" viewBox="0 0 14 16">
			<title>gear</title><path d="M14 8.77v-1.6l-1.94-.64-.45-1.09.88-1.84-1.13-1.13-1.81.91-1.09-.45-.69-1.92h-1.6l-.63 1.94-1.11.45-1.84-.88-1.13 1.13.91 1.81-.45 1.09L0 7.23v1.59l1.94.64.45 1.09-.88 1.84 1.13 1.13 1.81-.91 1.09.45.69 1.92h1.59l.63-1.94 1.11-.45 1.84.88 1.13-1.13-.92-1.81.47-1.09L14 8.75v.02zM7 11c-1.66 0-3-1.34-3-3s1.34-3 3-3 3 1.34 3 3-1.34 3-3 3z" fill-rule="evenodd"></path>
		</symbol>
	
		<symbol id="icon-issue-opened" viewBox="0 0 14 16">
			<title>issue-opened</title><path d="M7 2.3c3.14 0 5.7 2.56 5.7 5.7s-2.56 5.7-5.7 5.7A5.71 5.71 0 0 1 1.3 8c0-3.14 2.56-5.7 5.7-5.7zM7 1C3.14 1 0 4.14 0 8s3.14 7 7 7 7-3.14 7-7-3.14-7-7-7zm1 3H6v5h2V4zm0 6H6v2h2v-2z" fill-rule="evenodd"></path>
		</symbol>
	
		<symbol id="icon-kebab-horizontal" viewBox="0 0 13 16">
			<title>kebab-horizontal</title><path d="M1.5 9a1.5 1.5 0 1 1 0-3 1.5 1.5 0 0 1 0 3zm5 0a1.5 1.5 0 1 1 0-3 1.5 1.5 0 0 1 0 3zm5 0a1.5 1.5 0 1 1 0-3 1.5 1.5 0 0 1 0 3z" fill-rule="evenodd"></path>
		</symbol>
	
		<symbol id="icon-kebab-vertical" viewBox="0 0 3 16">
			<title>kebab-vertical</title><path d="M0 2.5a1.5 1.5 0 1 1 3 0 1.5 1.5 0 0 1-3 0zm0 5a1.5 1.5 0 1 1 3 0 1.5 1.5 0 0 1-3 0zm0 5a1.5 1.5 0 1 1 3 0 1.5 1.5 0 0 1-3 0z" fill-rule="evenodd"></path>
		</symbol>
	
		<symbol id="icon-link" viewBox="0 0 16 16">
			<title>link</title><path d="M4 9h1v1H4c-1.5 0-3-1.69-3-3.5S2.55 3 4 3h4c1.45 0 3 1.69 3 3.5 0 1.41-.91 2.72-2 3.25V8.59c.58-.45 1-1.27 1-2.09C10 5.22 8.98 4 8 4H4c-.98 0-2 1.22-2 2.5S3 9 4 9zm9-3h-1v1h1c1 0 2 1.22 2 2.5S13.98 12 13 12H9c-.98 0-2-1.22-2-2.5 0-.83.42-1.64 1-2.09V6.25c-1.09.53-2 1.84-2 3.25C6 11.31 7.55 13 9 13h4c1.45 0 3-1.69 3-3.5S14.5 6 13 6z" fill-rule="evenodd"></path>
		</symbol>
	
		<symbol id="icon-link-external" viewBox="0 0 12 16">
			<title>link-external</title><path d="M11 10h1v3c0 .55-.45 1-1 1H1c-.55 0-1-.45-1-1V3c0-.55.45-1 1-1h3v1H1v10h10v-3zM6 2l2.25 2.25L5 7.5 6.5 9l3.25-3.25L12 8V2H6z" fill-rule="evenodd"></path>
		</symbol>
	
		<symbol id="icon-mail" viewBox="0 0 14 16">
			<title>mail</title><path d="M0 4v8c0 .55.45 1 1 1h12c.55 0 1-.45 1-1V4c0-.55-.45-1-1-1H1c-.55 0-1 .45-1 1zm13 0L7 9 1 4h12zM1 5.5l4 3-4 3v-6zM2 12l3.5-3L7 10.5 8.5 9l3.5 3H2zm11-.5l-4-3 4-3v6z" fill-rule="evenodd"></path>
		</symbol>
	
		<symbol id="icon-mail-read" viewBox="0 0 14 16">
			<title>mail-read</title><path d="M6 5H4V4h2v1zm3 1H4v1h5V6zm5-.48V14c0 .55-.45 1-1 1H1c-.55 0-1-.45-1-1V5.52c0-.33.16-.63.42-.81L2 3.58V3c0-.55.45-1 1-1h1.2L7 0l2.8 2H11c.55 0 1 .45 1 1v.58l1.58 1.13c.27.19.42.48.42.81zM3 7.5L7 10l4-2.5V3H3v4.5zm-2 6l4.5-3-4.5-3v6zm11 .5l-5-3-5 3h10zm1-6.5l-4.5 3 4.5 3v-6z" fill-rule="evenodd"></path>
		</symbol>
	
		<symbol id="icon-plus" viewBox="0 0 12 16">
			<title>plus</title><path fill-rule="evenodd" d="M12 9H7v5H5V9H0V7h5V2h2v5h5z"></path>
		</symbol>
	
		<symbol id="icon-question" viewBox="0 0 14 16">
			<title>question</title><path d="M6 10h2v2H6v-2zm4-3.5C10 8.64 8 9 8 9H6c0-.55.45-1 1-1h.5c.28 0 .5-.22.5-.5v-1c0-.28-.22-.5-.5-.5h-1c-.28 0-.5.22-.5.5V7H4c0-1.5 1.5-3 3-3s3 1 3 2.5zM7 2.3c3.14 0 5.7 2.56 5.7 5.7s-2.56 5.7-5.7 5.7A5.71 5.71 0 0 1 1.3 8c0-3.14 2.56-5.7 5.7-5.7zM7 1C3.14 1 0 4.14 0 8s3.14 7 7 7 7-3.14 7-7-3.14-7-7-7z" fill-rule="evenodd"></path>
		</symbol>
	
		<symbol id="icon-search" viewBox="0 0 16 16">
			<title>search</title><path d="M15.7 13.3l-3.81-3.83A5.93 5.93 0 0 0 13 6c0-3.31-2.69-6-6-6S1 2.69 1 6s2.69 6 6 6c1.3 0 2.48-.41 3.47-1.11l3.83 3.81c.19.2.45.3.7.3.25 0 .52-.09.7-.3a.996.996 0 0 0 0-1.41v.01zM7 10.7c-2.59 0-4.7-2.11-4.7-4.7 0-2.59 2.11-4.7 4.7-4.7 2.59 0 4.7 2.11 4.7 4.7 0 2.59-2.11 4.7-4.7 4.7z" fill-rule="evenodd"></path>
		</symbol>
	
		<symbol id="icon-shield" viewBox="0 0 14 16">
			<title>shield</title><path d="M7 0L0 2v6.02C0 12.69 5.31 16 7 16c1.69 0 7-3.31 7-7.98V2L7 0zM5 11l1.14-2.8a.568.568 0 0 0-.25-.59C5.33 7.25 5 6.66 5 6c0-1.09.89-2 1.98-2C8.06 4 9 4.91 9 6c0 .66-.33 1.25-.89 1.61-.19.13-.3.36-.25.59L9 11H5z" fill-rule="evenodd"></path>
		</symbol>
	
		<symbol id="icon-sign-in" viewBox="0 0 14 16">
			<title>sign-in</title><path d="M7 6.75V12h4V8h1v4c0 .55-.45 1-1 1H7v3l-5.45-2.72c-.33-.17-.55-.52-.55-.91V1c0-.55.45-1 1-1h9c.55 0 1 .45 1 1v3h-1V1H3l4 2v2.25L10 3v2h4v2h-4v2L7 6.75z" fill-rule="evenodd"></path>
		</symbol>
	
		<symbol id="icon-sign-out" viewBox="0 0 16 16">
			<title>sign-out</title><path d="M12 9V7H8V5h4V3l4 3-4 3zm-2 3H6V3L2 1h8v3h1V1c0-.55-.45-1-1-1H1C.45 0 0 .45 0 1v11.38c0 .39.22.73.55.91L6 16.01V13h4c.55 0 1-.45 1-1V8h-1v4z" fill-rule="evenodd"></path>
		</symbol>
	
		<symbol id="icon-star" viewBox="0 0 14 16">
			<title>star</title><path fill-rule="evenodd" d="M14 6l-4.9-.64L7 1 4.9 5.36 0 6l3.6 3.26L2.67 14 7 11.67 11.33 14l-.93-4.74z"></path>
		</symbol>
	
		<symbol id="icon-sync" viewBox="0 0 12 16">
			<title>sync</title><path d="M10.24 7.4a4.15 4.15 0 0 1-1.2 3.6 4.346 4.346 0 0 1-5.41.54L4.8 10.4.5 9.8l.6 4.2 1.31-1.26c2.36 1.74 5.7 1.57 7.84-.54a5.876 5.876 0 0 0 1.74-4.46l-1.75-.34zM2.96 5a4.346 4.346 0 0 1 5.41-.54L7.2 5.6l4.3.6-.6-4.2-1.31 1.26c-2.36-1.74-5.7-1.57-7.85.54C.5 5.03-.06 6.65.01 8.26l1.75.35A4.17 4.17 0 0 1 2.96 5z" fill-rule="evenodd"></path>
		</symbol>
	
		<symbol id="icon-trashcan" viewBox="0 0 12 16">
			<title>trashcan</title><path d="M11 2H9c0-.55-.45-1-1-1H5c-.55 0-1 .45-1 1H2c-.55 0-1 .45-1 1v1c0 .55.45 1 1 1v9c0 .55.45 1 1 1h7c.55 0 1-.45 1-1V5c.55 0 1-.45 1-1V3c0-.55-.45-1-1-1zm-1 12H3V5h1v8h1V5h1v8h1V5h1v8h1V5h1v9zm1-10H2V3h9v1z" fill-rule="evenodd"></path>
		</symbol>
	
		<symbol id="icon-triangle-down" viewBox="0 0 12 16">
			<title>triangle-down</title><path fill-rule="evenodd" d="M0 5l6 6 6-6z"></path>
		</symbol>
	
		<symbol id="icon-triangle-left" viewBox="0 0 6 16">
			<title>triangle-left</title><path fill-rule="evenodd" d="M6 2L0 8l6 6z"></path>
		</symbol>
	
		<symbol id="icon-triangle-right" viewBox="0 0 6 16">
			<title>triangle-right</title><path fill-rule="evenodd" d="M0 14l6-6-6-6z"></path>
		</symbol>
	
		<symbol id="icon-triangle-up" viewBox="0 0 12 16">
			<title>triangle-up</title><path fill-rule="evenodd" d="M12 11L6 5l-6 6z"></path>
		</symbol>
	
		<symbol id="icon-x" viewBox="0 0 12 16">
			<title>x</title><path fill-rule="evenodd" d="M7.48 8l3.75 3.75-1.48 1.48L6 9.48l-3.75 3.75-1.48-1.48L4.52 8 .77 4.25l1.48-1.48L6 6.52l3.75-3.75 1.48 1.48z"></path>
		</symbol>
	
</svg>
